<svg xmlns="http://www.w3.org/2000/svg" viewBox="0 0 512 512" role="img" aria-labelledby="title desc">
  <title id="title">La Majorite</title>
  <desc id="desc">Logo rond La Majorite avec groupe de joueurs, bulle de question et texte.</desc>
  <defs>
    <radialGradient id="bg" cx="50%" cy="38%" r="62%">
      <stop offset="0%" stop-color="#122336"/>
      <stop offset="68%" stop-color="#07111d"/>
      <stop offset="100%" stop-color="#040913"/>
    </radialGradient>
    <linearGradient id="gold" x1="0%" x2="100%" y1="0%" y2="100%">
      <stop offset="0%" stop-color="#ffe177"/>
      <stop offset="100%" stop-color="#ffb63d"/>
    </linearGradient>
    <linearGradient id="blue" x1="0%" x2="100%" y1="0%" y2="100%">
      <stop offset="0%" stop-color="#9fb3c3"/>
      <stop offset="100%" stop-color="#5e788b"/>
    </linearGradient>
    <filter id="shadow" x="-20%" y="-20%" width="140%" height="140%">
      <feDropShadow dx="0" dy="10" stdDeviation="10" flood-color="#000" flood-opacity="0.32"/>
    </filter>
  </defs>

  <circle cx="256" cy="256" r="238" fill="url(#bg)"/>
  <circle cx="256" cy="256" r="232" fill="none" stroke="rgba(255,255,255,0.08)" stroke-width="2"/>

  <g filter="url(#shadow)">
    <path d="M175 71h162c42 0 76 31 76 69s-34 69-76 69h-54l-23 36-22-36h-63c-42 0-76-31-76-69s34-69 76-69Z" fill="none" stroke="#fff" stroke-width="16" stroke-linejoin="round"/>
    <path d="M256 96c23 0 41 14 41 35 0 18-10 27-26 36-7 4-10 8-10 17v7h-27v-10c0-18 9-28 24-36 10-6 15-10 15-19 0-8-7-14-18-14-13 0-22 7-24 20h-29c4-22 22-36 54-36Z" fill="url(#gold)"/>
    <circle cx="248" cy="214" r="15" fill="url(#gold)"/>
  </g>

  <g transform="translate(0 10)">
    <g fill="url(#blue)">
      <circle cx="125" cy="242" r="25"/>
      <path d="M86 314c0-35 17-56 39-56s39 21 39 56v39H86Z"/>
      <circle cx="388" cy="242" r="25"/>
      <path d="M349 314c0-35 17-56 39-56s39 21 39 56v39h-78Z"/>
      <circle cx="177" cy="247" r="28"/>
      <path d="M134 318c0-39 19-62 43-62s43 23 43 62v45h-86Z"/>
      <circle cx="335" cy="247" r="28"/>
      <path d="M292 318c0-39 19-62 43-62s43 23 43 62v45h-86Z"/>
    </g>
    <g fill="url(#gold)">
      <circle cx="256" cy="257" r="31"/>
      <path d="M205 337c0-48 23-78 51-78s51 30 51 78v47H205Z"/>
    </g>
  </g>

  <path d="M96 405h93M323 405h93" stroke="#fff" stroke-width="8" stroke-linecap="round" opacity="0.9"/>
  <text x="256" y="425" text-anchor="middle" fill="#fff" font-family="Inter, Arial, sans-serif" font-size="31" font-weight="900" letter-spacing="8">LA</text>
  <text x="256" y="475" text-anchor="middle" fill="#fff" font-family="Inter, Arial, sans-serif" font-size="46" font-weight="900" letter-spacing="8">MAJORITE</text>
</svg>
