<svg xmlns="http://www.w3.org/2000/svg" viewBox="0 0 64 64" aria-hidden="true">
  <rect width="64" height="64" rx="20" fill="#5865f2"/>
  <path fill="#fff" d="M45.5 21.2a32.5 32.5 0 0 0-8.1-2.5c-.4.7-.8 1.6-1.1 2.3a30 30 0 0 0-9 0c-.3-.8-.8-1.6-1.1-2.3a32 32 0 0 0-8.1 2.5c-5.1 7.7-6.5 15.2-5.8 22.6a32.8 32.8 0 0 0 10 5.1c.8-1.1 1.5-2.2 2.1-3.4-1.2-.5-2.3-1-3.4-1.6l.8-.6a23.2 23.2 0 0 0 20.2 0l.8.6c-1.1.7-2.2 1.2-3.4 1.6.6 1.2 1.3 2.3 2.1 3.4a32.6 32.6 0 0 0 10-5.1c.8-8.6-1.4-16-5.9-22.6ZM25.2 39.3c-2 0-3.7-1.9-3.7-4.1s1.6-4.1 3.7-4.1c2 0 3.7 1.9 3.7 4.1s-1.6 4.1-3.7 4.1Zm13.6 0c-2 0-3.7-1.9-3.7-4.1s1.6-4.1 3.7-4.1 3.7 1.9 3.7 4.1-1.6 4.1-3.7 4.1Z"/>
</svg>
