<svg xmlns="http://www.w3.org/2000/svg" viewBox="0 0 80 80" role="img" aria-label="robot">
  <defs><linearGradient id="bg" x1="12" y1="8" x2="68" y2="74" gradientUnits="userSpaceOnUse"><stop stop-color="#121826"/><stop offset="1" stop-color="#1f2937"/></linearGradient></defs>
  <rect width="80" height="80" rx="24" fill="url(#bg)"/>
  <circle cx="64" cy="16" r="10" fill="#64748b" opacity=".18"/>
  <circle cx="17" cy="65" r="13" fill="#f8fafc" opacity=".14"/>
  <path d="M34 21q-4-12-12-13M46 21q4-12 12-13" fill="none" stroke="#071018" stroke-width="2.5"/><circle cx="22" cy="8" r="3" fill="#f43f5e"/><circle cx="58" cy="8" r="3" fill="#f43f5e"/>
  <circle cx="40" cy="42" r="24" fill="#64748b"/><ellipse cx="40" cy="47" rx="17" ry="14" fill="#f8fafc" opacity=".95"/>
  <circle cx="31" cy="39" r="3.5" fill="#071018"/><circle cx="49" cy="39" r="3.5" fill="#071018"/><rect x="24" y="33" width="32" height="22" rx="5" fill="#0f172a"/><circle cx="33" cy="44" r="3" fill="#22d3ee"/><circle cx="47" cy="44" r="3" fill="#facc15"/><path d="M34 51q6 6 12 0" fill="none" stroke="#071018" stroke-width="3" stroke-linecap="round"/>
</svg>