<svg xmlns="http://www.w3.org/2000/svg" viewBox="0 0 80 80" role="img" aria-label="soleil">
  <defs><linearGradient id="bg" x1="12" y1="8" x2="68" y2="74" gradientUnits="userSpaceOnUse"><stop stop-color="#121826"/><stop offset="1" stop-color="#1f2937"/></linearGradient></defs>
  <rect width="80" height="80" rx="24" fill="url(#bg)"/>
  <circle cx="64" cy="16" r="10" fill="#facc15" opacity=".18"/>
  <circle cx="17" cy="65" r="13" fill="#fffbeb" opacity=".14"/>
  
  <circle cx="40" cy="42" r="24" fill="#facc15"/><ellipse cx="40" cy="47" rx="17" ry="14" fill="#fffbeb" opacity=".95"/>
  <g stroke="#facc15" stroke-width="4" stroke-linecap="round"><path d="M40 5v10M40 65v10M5 40h10M65 40h10M15 15l7 7M58 58l7 7M65 15l-7 7M22 58l-7 7"/></g><circle cx="31" cy="39" r="3.5" fill="#071018"/><circle cx="49" cy="39" r="3.5" fill="#071018"/><path d="M34 51q6 6 12 0" fill="none" stroke="#071018" stroke-width="3" stroke-linecap="round"/>
</svg>